name C:\Users\u0101727\Documents\MyRepositories\upper-imu-dc\Results\main_tracking\Case_45\FLX01_angularVelocities_bodyFrame.mot
datacolumns 4
datarows 82
range 0.50600000 0.99200000
endheader 
time	radius_imu_x	radius_imu_y	radius_imu_z	
          0.50600000	          0.21722015	         -4.56120723	         -0.61964839	
          0.51200000	          0.21543120	         -4.55908630	         -0.63003947	
          0.51800000	          0.21352481	         -4.55590511	         -0.63971608	
          0.52400000	          0.21160551	         -4.55170481	         -0.64910572	
          0.53000000	          0.20955883	         -4.54643860	         -0.65834591	
          0.53600000	          0.20721764	         -4.54002455	         -0.66750271	
          0.54200000	          0.20442344	         -4.53241021	         -0.67660714	
          0.54800000	          0.20103519	         -4.52358450	         -0.68568188	
          0.55400000	          0.19693088	         -4.51358620	         -0.69474869	
          0.56000000	          0.19200628	         -4.50250807	         -0.70383204	
          0.56600000	          0.18617362	         -4.49049781	         -0.71296062	
          0.57200000	          0.17936043	         -4.47775584	         -0.72216739	
          0.57800000	          0.17150846	         -4.46453077	         -0.73148948	
          0.58400000	          0.16257289	         -4.45111345	         -0.74096782	
          0.59000000	          0.15252115	         -4.43782697	         -0.75064630	
          0.59600000	          0.14133215	         -4.42501838	         -0.76057125	
          0.60200000	          0.12899491	         -4.41304368	         -0.77079042	
          0.60800000	          0.11550661	         -4.40225311	         -0.78135196	
          0.61400000	          0.10087105	         -4.39297906	         -0.79230354	
          0.62000000	          0.08509672	         -4.38551990	         -0.80369125	
          0.62600000	          0.06819555	         -4.38012883	         -0.81555875	
          0.63200000	          0.05018185	         -4.37700253	         -0.82794644	
          0.63800000	          0.03107193	         -4.37627327	         -0.84089059	
          0.64400000	          0.01088457	         -4.37800734	         -0.85442266	
          0.65000000	         -0.01035829	         -4.38220647	         -0.86856873	
          0.65600000	         -0.03263099	         -4.38881078	         -0.88334866	
          0.66200000	         -0.05590345	         -4.39770481	         -0.89877581	
          0.66800000	         -0.08014067	         -4.40872326	         -0.91485680	
          0.67400000	         -0.10530275	         -4.42165439	         -0.93159136	
          0.68000000	         -0.13134480	         -4.43624402	         -0.94897279	
          0.68600000	         -0.15821740	         -4.45219684	         -0.96698834	
          0.69200000	         -0.18586733	         -4.46918038	         -0.98561989	
          0.69800000	         -0.21423777	         -4.48682769	         -1.00484496	
          0.70400000	         -0.24326863	         -4.50474054	         -1.02463756	
          0.71000000	         -0.27289660	         -4.52249753	         -1.04496930	
          0.71600000	         -0.30305551	         -4.53965905	         -1.06581026	
          0.72200000	         -0.33367672	         -4.55578106	         -1.08712982	
          0.72800000	         -0.36468890	         -4.57042717	         -1.10889768	
          0.73400000	         -0.39601802	         -4.58317808	         -1.13108465	
          0.74000000	         -0.42758738	         -4.59364643	         -1.15366357	
          0.74600000	         -0.45931798	         -4.60148437	         -1.17661003	
          0.75200000	         -0.49112941	         -4.60639721	         -1.19990284	
          0.75800000	         -0.52294034	         -4.60815208	         -1.22352471	
          0.76400000	         -0.55466941	         -4.60658232	         -1.24746275	
          0.77000000	         -0.58623674	         -4.60159431	         -1.27170861	
          0.77600000	         -0.61756565	         -4.59316780	         -1.29625877	
          0.78200000	         -0.64858523	         -4.58135813	         -1.32111409	
          0.78800000	         -0.67923207	         -4.56629326	         -1.34627962	
          0.79400000	         -0.70945090	         -4.54816900	         -1.37176442	
          0.80000000	         -0.73919568	         -4.52724453	         -1.39758066	
          0.80600000	         -0.76842956	         -4.50383542	         -1.42374276	
          0.81200000	         -0.79712477	         -4.47830622	         -1.45026591	
          0.81800000	         -0.82526177	         -4.45106134	         -1.47716461	
          0.82400000	         -0.85282752	         -4.42253716	         -1.50445089	
          0.83000000	         -0.87981387	         -4.39319304	         -1.53213248	
          0.83600000	         -0.90621589	         -4.36350454	         -1.56021084	
          0.84200000	         -0.93203066	         -4.33395294	         -1.58867949	
          0.84800000	         -0.95725660	         -4.30501617	         -1.61752250	
          0.85400000	         -0.98189328	         -4.27716239	         -1.64671342	
          0.86000000	         -1.00594179	         -4.25084058	         -1.67621472	
          0.86600000	         -1.02940543	         -4.22647494	         -1.70597784	
          0.87200000	         -1.05229091	         -4.20445680	         -1.73594388	
          0.87800000	         -1.07460985	         -4.18513751	         -1.76604493	
          0.88400000	         -1.09638024	         -4.16882419	         -1.79620570	
          0.89000000	         -1.11762822	         -4.15577427	         -1.82634553	
          0.89600000	         -1.13838982	         -4.14619159	         -1.85638066	
          0.90200000	         -1.15871292	         -4.14022242	         -1.88622658	
          0.90800000	         -1.17865903	         -4.13795084	         -1.91580071	
          0.91400000	         -1.19830454	         -4.13939515	         -1.94502484	
          0.92000000	         -1.21774219	         -4.14450422	         -1.97382757	
          0.92600000	         -1.23708184	         -4.15315341	         -2.00214658	
          0.93200000	         -1.25645072	         -4.16514142	         -2.02993070	
          0.93800000	         -1.27599193	         -4.18018679	         -2.05714185	
          0.94400000	         -1.29586086	         -4.19792532	         -2.08375657	
          0.95000000	         -1.31621991	         -4.21791011	         -2.10976674	
          0.95600000	         -1.33723168	         -4.23961212	         -2.13517951	
          0.96200000	         -1.35904997	         -4.26242465	         -2.16001680	
          0.96800000	         -1.38181117	         -4.28567196	         -2.18431320	
          0.97400000	         -1.40562649	         -4.30861886	         -2.20811353	
          0.98000000	         -1.43057421	         -4.33048563	         -2.23146978	
          0.98600000	         -1.45669473	         -4.35046295	         -2.25443795	
          0.99200000	         -1.48398618	         -4.36773382	         -2.27707540	
